<svg width="26" height="26" viewBox="0 0 26 26" fill="none" xmlns="http://www.w3.org/2000/svg">
<path d="M10.9405 2.70813L16.7389 8.50654C17.8146 9.58223 18.8359 10.7269 19.867 11.8984C20.8919 13.063 21.9319 14.2598 23.0186 15.4036C23.5138 15.9251 23.8276 16.354 24.0026 16.697C24.1764 17.0378 24.1791 17.2266 24.1628 17.3157C24.1378 17.4516 23.9466 17.836 22.7783 18.2541L22.5318 18.3377C16.1029 20.4218 9.62419 22.3805 3.11257 24.1506C1.67438 24.5406 1.24741 24.2768 1.15905 24.1789C1.10825 24.1224 1.01657 23.9755 1.00161 23.6127C0.986469 23.2452 1.05522 22.7325 1.24882 22.0534C3.00677 15.8966 4.80216 9.75453 6.72959 3.65968C7.03747 2.68586 7.34257 2.01324 7.63902 1.5791C7.93113 1.15147 8.15322 1.04232 8.28536 1.01287C8.42372 0.982131 8.68677 0.988981 9.15889 1.25248C9.63283 1.51701 10.2188 1.98648 10.9405 2.70813Z" fill="#4DD7BE" stroke="#1D1D1D" stroke-width="2"/>
</svg>
