<svg width="92" height="115" viewBox="0 0 92 115" fill="none" xmlns="http://www.w3.org/2000/svg">
<path fill-rule="evenodd" clip-rule="evenodd" d="M1.39593 40.7522C3.31761 42.0308 9.08264 42.0308 17.7577 40.8071C21.2481 40.3443 30.6839 39.5285 38.7236 39.0029C53.2813 38.0695 56.8344 37.7243 65.5095 36.0299C70.9294 35.0415 72.7883 34.3435 72.7883 33.4101C72.7883 32.8845 67.6037 32.7667 50.9518 33.1197C25.4993 33.5825 18.9813 34.0533 2.61172 36.9086C-0.298249 37.3714 -0.878721 39.2931 1.38808 40.7522L1.39593 40.7522Z" fill="#1D1D1D"/>
<path fill-rule="evenodd" clip-rule="evenodd" d="M1.62833 5.68777C2.20876 6.26824 3.25978 6.67615 3.95786 6.67615C7.44826 6.67615 8.15421 1.49111 4.77362 0.212493C1.51069 -1.01121 -0.93652 3.35802 1.62833 5.68777Z" fill="#1D1D1D"/>
<path fill-rule="evenodd" clip-rule="evenodd" d="M16.886 8.71697C19.796 10.2309 55.4373 15.9965 61.7906 15.9965C63.9476 15.9965 63.9477 15.1256 61.8456 14.0745C60.2141 13.2038 48.2212 9.87789 39.6011 7.90114C26.7925 4.87326 17.7645 4.11229 16.0703 5.86156C14.729 7.14017 14.9095 7.66584 16.886 8.71697Z" fill="#1D1D1D"/>
<path fill-rule="evenodd" clip-rule="evenodd" d="M20.6663 74.6454C21.1918 74.8179 22.4154 74.8179 23.4586 74.6454C26.196 74.2375 67.7199 51.5207 70.1044 49.136C72.9595 46.3984 69.0533 47.2689 57.0605 51.9284C45.0598 56.6428 28.4628 65.0362 22.235 69.578C19.6702 71.4449 18.9172 73.9472 20.6663 74.6454Z" fill="#1D1D1D"/>
<path fill-rule="evenodd" clip-rule="evenodd" d="M39.5373 111.45C42.1571 114.07 47.1692 112.093 47.1692 108.477C47.1692 106.147 45.0749 103.935 42.863 103.935C40.5335 103.935 39.255 105.214 38.7294 108.132C38.3765 109.818 38.5569 110.461 39.5452 111.45L39.5373 111.45Z" fill="#1D1D1D"/>
<path fill-rule="evenodd" clip-rule="evenodd" d="M50.4878 97.1281C51.3584 98.0616 53.4606 97.4184 55.1469 95.6142C59.3433 91.1901 79.7209 62.5898 80.8896 59.4443C81.9955 56.7066 80.4817 57.2871 76.2305 61.2485C68.6615 68.4103 55.3822 84.546 51.4761 91.2999C50.1348 93.6845 49.6721 96.3672 50.4878 97.1203L50.4878 97.1281Z" fill="#1D1D1D"/>
<path fill-rule="evenodd" clip-rule="evenodd" d="M82.2315 113.663C82.9296 115.122 84.5611 115.412 85.4317 114.243C87.3534 111.859 92.7733 74.0571 91.7223 70.6762C90.8516 68.0562 89.8555 69.8603 87.7063 77.8379C83.1649 94.6089 80.6628 110.69 82.2315 113.655L82.2315 113.663Z" fill="#1D1D1D"/>
</svg>
