<svg width="446" height="11" viewBox="0 0 446 11" fill="none" xmlns="http://www.w3.org/2000/svg">
<path d="M95.693 4.58489C96.46 3.33003 95.3096 3.0637 92.4215 3.1354C82.0677 3.38637 71.702 3.49393 61.3482 3.69881C48.2142 3.9549 35.0682 4.24172 21.9342 4.52855C17.4644 4.62586 12.8627 4.1905 8.74035 5.51194C7.58993 5.88072 5.24115 5.69121 3.50354 5.57341C1.90973 5.46585 0.255995 5.01512 0.0283075 4.32367C-0.271281 3.43247 1.87378 3.27881 3.3118 3.15589C6.61926 2.87419 9.98664 2.59761 13.354 2.56175C52.6241 2.18274 91.8343 1.12251 131.128 0.779345C190.159 0.262037 249.202 -0.255271 308.245 0.139113C346.521 0.395206 384.784 1.0508 423.048 1.61421C429.387 1.7064 435.69 2.24932 441.994 2.64882C443.264 2.73077 445.11 2.88443 445.169 3.58613C445.253 4.50806 443.24 4.51318 441.718 4.61562C435.595 5.02537 429.411 5.13293 423.228 5.02537C414.264 4.86659 405.3 4.68733 396.348 4.51318C388.799 4.13416 381.225 4.36977 373.664 4.39026C373.088 4.39026 372.477 4.28782 371.914 4.43123C372.693 4.55928 373.22 4.81025 373.676 5.09707C372.861 6.95631 369.266 6.51071 366.509 6.6029C336.622 7.60679 306.676 7.27387 276.753 7.13557C228.243 6.91021 179.83 7.9858 131.404 8.84116C114.076 9.14847 96.7955 9.79382 79.4913 10.2753C77.8975 10.3214 76.3036 10.3009 74.7098 10.2753C73.4755 10.2548 72.0974 10.1216 71.9536 9.52236C71.7978 8.8975 73.14 8.69774 74.3623 8.61579C77.502 8.4058 80.6537 8.22141 84.069 8.01141C80.6177 6.58754 80.8814 5.68097 86.1062 5.60926C87.3045 5.59389 88.4909 5.55804 89.6893 5.53243C98.9765 5.1022 108.312 5.32244 117.623 5.16366C132.519 4.91269 147.438 4.73342 162.358 4.88196C164.574 4.90244 166.708 4.75391 168.829 4.49269C186.373 4.18026 203.928 4.18538 221.472 4.30831C240.035 4.43635 258.538 3.79612 277.088 3.81149C279.892 3.81149 282.66 3.87807 285.417 4.06246C303.871 4.09831 322.338 4.06246 340.805 4.07782C337.425 4.06758 334.046 4.06758 330.667 4.06758C327.431 4.06758 324.207 4.06758 320.972 4.06758C318.743 4.06758 316.502 4.06758 314.273 4.06758C280.827 3.89344 247.381 3.62198 213.947 3.93953C197.038 4.10343 180.093 4.01124 163.232 4.41074C148.541 4.75391 133.849 4.82049 119.157 5.09195C113.069 5.02025 107.006 5.50682 100.906 5.34292C99.0005 5.2917 96.8674 5.53755 95.717 4.56952L95.693 4.58489Z" fill="#8F66FE"/>
<path d="M95.6932 4.58508C100.678 5.56848 105.819 4.98458 110.912 4.85654C113.477 4.78995 116.041 4.74898 118.594 4.69264C132.435 4.96922 146.264 4.52362 160.093 4.42118C163.209 4.39557 166.48 4.0268 169.033 5.18946C168.098 5.30726 167.163 5.52238 166.228 5.5275C140.715 5.54799 115.202 5.54287 89.6895 5.54287C91.2353 4.69264 94.2911 5.5736 95.7052 4.57996L95.6932 4.58508Z" fill="#E4DBFE"/>
<path d="M373.676 5.09691C371.687 4.84595 369.685 4.6001 367.696 4.34914C377.307 4.28255 386.869 3.56038 396.348 4.51303C390.596 4.51303 384.832 4.48742 379.08 4.53352C377.235 4.54888 375.03 4.14426 373.676 5.09691Z" fill="#A383FE"/>
<path d="M286.016 4.51876C295.531 3.60195 305.226 4.40096 314.801 3.98097C316.742 3.70439 318.731 3.88877 320.697 3.83756C323.92 3.73 327.192 4.06804 330.367 3.62244C335.64 3.57122 340.973 3.34586 347 4.51876H286.016Z" fill="#BAA1FE"/>
<path d="M330.367 3.62207C327.359 4.50302 323.992 3.90889 320.804 4.03181C320.469 3.9345 320.361 3.84743 320.493 3.76036C320.612 3.67841 320.732 3.63231 320.852 3.63231C324.028 3.63231 327.203 3.62719 330.367 3.62207Z" fill="#CDBCFE"/>
<path d="M320.84 3.63184C320.876 3.765 320.852 3.89817 320.804 4.03133C318.803 4.01597 316.802 3.99548 314.801 3.98012C314.849 3.87256 314.861 3.77012 314.849 3.66257C316.85 3.65232 318.851 3.64208 320.852 3.63184H320.84Z" fill="#E3DBFE"/>
</svg>
