<svg width="204" height="202" viewBox="0 0 204 202" fill="none" xmlns="http://www.w3.org/2000/svg">
<path fill-rule="evenodd" clip-rule="evenodd" d="M126.752 2.44902C126.318 3.74103 125.248 10.6831 124.322 17.8374C123.396 24.9916 122.249 31.2974 121.815 31.7987C121.314 32.3676 118.806 33.1582 116.154 33.5921C113.503 34.0935 109.636 34.9516 107.495 35.5205L103.696 36.5907L104.197 39.2422C104.409 40.6789 105.055 42.318 105.557 42.8194C106.058 43.3207 110.137 44.8923 114.65 46.3965L122.808 49.048L123.599 52.9818C124.033 55.132 124.959 60.6374 125.672 65.1498C127.176 75.0327 127.601 76.3151 129.606 76.9611C132.615 77.8963 133.618 75.7462 135.691 64.5809C137.764 53.4832 139.057 49.4047 140.349 49.4047C141.998 49.4047 156.028 43.61 157.822 42.1733C159.972 40.4571 160.252 37.9502 158.468 36.3786C157.176 35.3084 151.592 34.161 142.644 33.2257C139.568 32.9365 137.986 32.4351 137.562 31.577C136.916 30.3621 136.135 26.0619 133.907 11.2424C133.194 6.16113 132.191 1.58126 131.689 1.00275C131.255 0.433882 130.118 0 129.259 0C127.967 0 127.398 0.568868 126.752 2.42974V2.44902ZM130.33 22.7065C130.33 26.2836 132.403 34.5949 133.628 35.8772C135.132 37.526 138.063 38.4516 144.148 39.0301C146.8 39.3194 148.941 39.7436 148.941 40.0329C148.941 40.3221 146.289 41.4599 143.068 42.6072C139.77 43.6775 136.405 45.2587 135.547 46.0397C134.544 46.8978 133.396 49.6168 132.393 53.4157C131.535 56.7132 130.677 59.3551 130.532 59.2105C130.387 59.0658 129.819 56.2793 129.24 52.9818C127.803 44.8249 126.877 43.9571 117.572 41.5273C113.85 40.5921 114.139 39.734 118.507 39.1651C125.595 38.1623 127.745 35.4434 128.603 26.2836C128.893 23.2754 129.394 20.7685 129.674 20.7685C130.031 20.7685 130.32 21.6266 130.32 22.6969L130.33 22.7065Z" fill="black"/>
<path fill-rule="evenodd" clip-rule="evenodd" d="M15.7694 7.67836C11.5458 11.4772 11.5458 18.4869 15.7694 21.4951C18.1995 23.2113 23.5029 23.4235 26.4344 21.929C30.4459 19.856 32.307 14.6976 30.5134 10.542C29.2212 7.32162 26.2222 5.75 21.5647 5.75C18.6332 5.75 17.5534 6.10675 15.7694 7.67836ZM22.2109 11.8244C25.6438 13.6177 24.4287 17.6191 20.7065 17.0502C18.6333 16.761 17.6303 14.9772 18.1992 12.6825C18.7007 10.4649 19.3469 10.3202 22.2109 11.8244Z" fill="black"/>
<path fill-rule="evenodd" clip-rule="evenodd" d="M49.1988 56.7129C48.6298 57.6482 46.1227 68.1674 43.683 80.1907C41.2529 92.2141 38.8902 102.81 38.4563 103.813C37.7427 105.24 35.1584 106.532 24.7053 110.611C1.22454 119.77 0 120.416 0 123.425C0 127.359 5.43873 128.795 27.0681 130.579C39.6715 131.582 42.0339 132.228 43.6058 135.159C43.9625 135.872 46.2575 144.251 48.6201 153.912C52.3423 168.732 53.2778 171.663 54.9942 173.389C57.5014 175.963 58.292 175.896 59.6516 173.032C61.3681 169.455 62.1589 165.444 64.0875 150.335C66.1608 134.725 67.4529 128.93 69.1019 127.715C70.529 126.645 78.9088 124.35 88.5807 122.345C97.2402 120.484 99.8247 119.192 100.104 116.261C100.461 112.394 98.9567 111.748 77.1249 105.877C70.0373 104.016 63.9526 102.078 63.6633 101.509C63.3065 101.007 62.8725 99.5805 62.6604 98.4331C55.8621 56.6936 55.6403 55.6909 52.1399 55.2666C50.7803 55.122 49.922 55.4787 49.2084 56.6936L49.1988 56.7129ZM54.7145 85.2045C57.9353 106.253 57.7907 105.896 62.6604 108.258C63.8754 108.904 69.9603 110.765 76.2668 112.414C82.5637 114.13 87.7901 115.567 87.9347 115.634C88.0022 115.702 85.0032 116.569 81.1363 117.427C61.2331 122.007 61.0212 122.219 57.9354 144.916C57 151.434 56.1416 156.66 56.0741 156.515C55.9295 156.371 54.5699 151.222 52.9981 144.993C48.4851 126.597 47.4823 125.806 27.7237 124.157C20.5686 123.511 14.2621 122.798 13.7606 122.509C13.1917 122.152 17.9843 119.934 26.2869 116.714C36.0264 112.915 40.3947 110.842 41.9665 109.27C44.4737 106.764 45.3318 103.688 49.5554 82.1384C50.8476 75.4084 52.0628 70.6839 52.352 71.3974C52.5642 72.1109 53.6442 78.3395 54.7145 85.2141V85.2045Z" fill="black"/>
<path fill-rule="evenodd" clip-rule="evenodd" d="M189.679 77.761C185.243 80.5571 183.237 87.7114 185.88 91.5103C188.387 95.0874 194.259 96.3022 198.406 94.0846C200.913 92.7926 203.276 88.2127 203.343 84.6356C203.343 81.772 201.694 78.3395 199.833 77.3368C197.76 76.2665 191.743 76.4786 189.669 77.7706L189.679 77.761ZM196.767 82.4855C197.982 83.7004 197.837 87.0654 196.477 88.3574C194.973 89.929 192.398 89.7844 190.894 88.1453C189.602 86.7183 189.959 85.2141 192.109 82.4855C192.967 81.4153 195.619 81.3381 196.767 82.4855Z" fill="black"/>
<path fill-rule="evenodd" clip-rule="evenodd" d="M147.155 120.428C146.152 122.857 143.645 137.253 142.787 145.198C142.497 147.704 141.928 150.134 141.427 150.636C140.925 151.137 137.136 151.928 133.047 152.352C123.886 153.355 118.158 155.784 118.158 158.648C118.158 160.798 119.017 161.222 129.257 163.585C141.928 166.516 141.282 165.947 142.14 174.326C142.931 181.412 146.075 196.376 147.367 199.028C148.939 202.181 151.88 202.827 153.529 200.32C154.464 198.816 156.682 185.211 157.965 173.043C158.534 167.316 157.531 168.029 170.423 164.597C179.806 162.09 182.805 160.441 182.448 157.944C182.091 155.649 179.44 154.791 168.697 153.432C159.315 152.284 158.813 152.14 158.177 150.423C157.743 149.488 156.46 142.546 155.245 135.035C152.671 118.789 152.449 118.143 150.019 118.143C148.582 118.143 147.946 118.711 147.155 120.437V120.428ZM153.596 153.644C154.889 156.941 156.962 158.224 160.973 158.224C162.41 158.224 164.406 158.436 165.409 158.725C166.836 159.082 166.055 159.516 161.185 161.02C153.162 163.527 152.806 164.028 151.301 176.129C149.942 186.937 149.652 186.725 147.936 173.766C146.509 163.247 145.139 161.377 137.627 159.66C135.554 159.159 133.905 158.658 134.05 158.513C134.195 158.445 136.557 157.944 139.276 157.51C146.364 156.44 147.367 155.215 148.659 146.702C149.228 142.98 149.662 139.47 149.73 138.901C149.797 138.333 150.376 140.695 151.089 144.272C151.803 147.782 152.883 152.072 153.596 153.653V153.644Z" fill="black"/>
</svg>
