<svg width="144" height="66" viewBox="0 0 144 66" fill="none" xmlns="http://www.w3.org/2000/svg">
<path d="M5.54156 13.4055C4.66096 12.0021 2.80936 11.5782 1.4059 12.4588C0.00243402 13.3394 -0.421429 15.191 0.459172 16.5945L3.00037 15L5.54156 13.4055ZM63.5004 62L62.9517 64.9494L63.5004 62ZM141 3H144C144 2.0741 143.573 1.20007 142.842 0.631711C142.111 0.0633526 141.159 -0.135647 140.261 0.0924945L141 3ZM110.761 7.59249C109.155 8.00074 108.185 9.63343 108.593 11.2392C109.001 12.845 110.634 13.8158 112.24 13.4075L111.5 10.5L110.761 7.59249ZM138 28.5C138 30.1569 139.344 31.5 141 31.5C142.657 31.5 144 30.1569 144 28.5H141H138ZM3.00037 15C0.459172 16.5945 0.459698 16.5953 0.46032 16.5963C0.460657 16.5968 0.461378 16.598 0.462052 16.5991C0.463401 16.6012 0.465139 16.604 0.467265 16.6073C0.471516 16.6141 0.477318 16.6233 0.484664 16.6349C0.499356 16.658 0.520224 16.6909 0.547209 16.7331C0.601177 16.8174 0.679619 16.9392 0.782059 17.0961C0.986924 17.4099 1.28786 17.8644 1.68104 18.4413C2.46725 19.5948 3.62329 21.2392 5.11861 23.2282C8.10669 27.2027 12.4632 32.571 17.9446 38.1531C28.8369 49.2454 44.4965 61.5166 62.9517 64.9494L63.5004 62L64.049 59.0506C47.3969 55.9532 32.8065 44.7244 22.2257 33.9492C16.9705 28.5976 12.7846 23.4403 9.91444 19.6227C8.48065 17.7155 7.3786 16.1473 6.63901 15.0621C6.26929 14.5197 5.9904 14.0983 5.80616 13.8161C5.71405 13.675 5.64562 13.5687 5.60135 13.4995C5.57922 13.4649 5.56313 13.4396 5.55314 13.4239C5.54815 13.416 5.54469 13.4105 5.54275 13.4074C5.54179 13.4059 5.5412 13.405 5.541 13.4046C5.5409 13.4045 5.54104 13.4047 5.54099 13.4046C5.54123 13.405 5.54156 13.4055 3.00037 15ZM63.5004 62L62.9517 64.9494C86.9717 69.4173 107.35 53.5112 121.259 37.5891C128.3 29.5293 133.898 21.2259 137.732 14.9512C139.651 11.8096 141.135 9.16596 142.142 7.30136C142.646 6.36881 143.03 5.63042 143.291 5.12122C143.421 4.86661 143.521 4.66923 143.589 4.53347C143.622 4.46559 143.649 4.41311 143.667 4.37658C143.676 4.35831 143.683 4.34403 143.688 4.3338C143.69 4.32869 143.692 4.32458 143.694 4.32151C143.694 4.31997 143.695 4.31843 143.696 4.31766C143.696 4.31637 143.697 4.31534 141 3C138.304 1.68466 138.304 1.68414 138.304 1.68388C138.304 1.68414 138.304 1.68413 138.304 1.68464C138.304 1.68565 138.303 1.68768 138.301 1.69071C138.298 1.69678 138.293 1.70688 138.286 1.72093C138.272 1.74903 138.251 1.79297 138.221 1.85219C138.162 1.97063 138.071 2.15019 137.95 2.38652C137.708 2.85923 137.344 3.55879 136.863 4.45047C135.899 6.23432 134.469 8.78422 132.612 11.8229C128.893 17.9089 123.491 25.9132 116.74 33.6419C103.065 49.2968 84.6936 62.8907 64.049 59.0506L63.5004 62ZM141 3L140.261 0.0924945L110.761 7.59249L111.5 10.5L112.24 13.4075L141.74 5.90751L141 3ZM141 3H138V28.5H141H144V3H141Z" fill="#1D1D1D"/>
</svg>
