<svg width="84" height="84" viewBox="0 0 84 84" fill="none" xmlns="http://www.w3.org/2000/svg">
<path d="M84 0V84H0V0H84Z" fill="white" fill-opacity="0.01"/>
<path d="M42 7C61.33 7 77 22.67 77 42C77 59.5456 64.0893 74.0743 47.25 76.6074V52.5H50.75C53.6495 52.5 56 50.1495 56 47.25C56 44.3505 53.6495 42 50.75 42H47.25V35C47.25 34.0335 48.0335 33.25 49 33.25H50.75C53.6495 33.25 56 30.8995 56 28C56 25.1005 53.6495 22.75 50.75 22.75H49C42.2345 22.75 36.75 28.2345 36.75 35V42H33.25C30.3505 42 28 44.3505 28 47.25C28 50.1495 30.3505 52.5 33.25 52.5H36.75V76.6074C19.9107 74.0743 7 59.5456 7 42C7 22.67 22.67 7 42 7Z" fill="#10161F"/>
</svg>
