<svg width="303" height="353" viewBox="0 0 303 353" fill="none" xmlns="http://www.w3.org/2000/svg">
<path fill-rule="evenodd" clip-rule="evenodd" d="M115.457 21.4259C123.801 22.0907 128.636 25.9593 136.549 38.0835C143.702 49.3466 147.673 58.9327 152.051 76.2258C153.701 82.706 157.206 93.7381 159.784 100.456C166.073 117.436 166.134 117.542 164.497 120.824C163.14 123.435 162.547 123.777 159.357 123.915C155.679 124.088 130.16 115.591 108.069 106.943C91.5269 100.451 83.6861 95.4537 78.6398 88.0525C67.1789 71.5802 78.7051 58.793 101.85 62.2642L107.575 63.1408L103.627 53.8055C96.8632 38.0124 97.8575 29.3554 107.057 24.044C110.194 22.2329 113.37 21.1899 115.449 21.4128L115.457 21.4259ZM109.665 33.7665C107.25 39.0795 108.786 44.4484 117.587 61.0327C124.328 73.8341 125.462 76.7114 124.289 77.3886C123.511 77.8376 121.556 77.4027 120.026 76.3356C116.053 73.5334 99.9341 70.4517 92.2668 70.9598C87.0731 71.2172 85.5883 71.8109 84.4242 73.6603C81.3765 78.5477 86.5064 85.6369 97.6121 91.7538C107.303 97.2465 151.495 113.219 153.459 112.085C153.749 111.918 152.447 107.837 150.538 102.947C148.682 98.1499 145.176 86.8723 142.91 77.7429C136.403 52.0143 126.132 33.5548 117.124 31.0413C112.031 29.6768 111.544 29.9584 109.699 33.7645L109.665 33.7665Z" fill="#1D1D1D"/>
<path fill-rule="evenodd" clip-rule="evenodd" d="M87.7929 164.477C96.2127 166.398 103.126 171.158 115.103 183.29C120.233 188.553 127.191 194.973 130.501 197.754C133.903 200.481 137.023 203.389 137.472 204.166C138.43 205.827 137.377 210.09 135.611 211.11C133.462 212.35 78.0956 208.435 73.2704 206.652C67.8956 204.8 64.6079 199.775 65.7667 195.451C66.8419 191.439 71.7618 187.298 76.4675 186.408C81.081 185.572 81.2036 185.115 78.0001 182.519C70.8142 176.617 70.5129 169.094 77.3665 165.137C80.3979 163.387 82.4151 163.259 87.7983 164.456L87.7929 164.477ZM80.6999 173.65C81.3238 174.731 84.5808 178.333 87.8605 181.518C91.1478 184.715 93.8038 187.733 93.6148 188.106C93.5312 188.418 92.495 188.875 91.2991 189.056C88.1314 189.444 86.3423 189.968 80.5171 192.54C70.359 197.104 72.7328 200.303 86.6579 201.137C103.774 202.079 121.27 202.556 121.332 201.993C121.661 200.766 98.537 178.095 93.8028 175.1C89.1664 172.03 82.4075 170.064 80.4569 171.19C79.9692 171.471 80.0836 172.583 80.6999 173.65Z" fill="#1D1D1D"/>
<path fill-rule="evenodd" clip-rule="evenodd" d="M194.438 151.438C202.271 157.09 227.289 178.264 236.796 187.518C256.729 206.672 284.919 238.544 294.217 252.609C299.62 260.841 300.091 261.87 299.428 265.257C298.832 268.729 298.634 268.843 296.344 267.829C295.003 267.302 292.195 264.478 290.05 261.675C271.511 236.11 241.107 203.567 209.786 175.981C187.379 156.164 182.271 150.239 186.08 148.04C187.543 147.196 189.561 147.981 194.438 151.438Z" fill="#1D1D1D"/>
<path fill-rule="evenodd" clip-rule="evenodd" d="M170.075 226.303C179.562 226.694 210.196 238.633 229.935 249.536C255.442 263.644 277.335 281.931 272.353 284.807C270.099 286.109 266.605 284.348 249.781 273.046C232.707 261.765 206.575 248.157 189.071 241.552C171.563 234.968 163.6 231.341 162.466 229.378C160.997 226.834 162.97 225.959 170.08 226.282L170.075 226.303Z" fill="#1D1D1D"/>
</svg>
