<svg width="72" height="88" viewBox="0 0 72 88" fill="none" xmlns="http://www.w3.org/2000/svg">
<path fill-rule="evenodd" clip-rule="evenodd" d="M70.4661 14.2488C70.2133 13.8109 69.6349 13.3926 69.1966 13.2751C67.1776 12.7342 49.6933 15.2392 48.6394 16.2239C47.4466 17.3281 48.8742 17.9242 53.9143 18.4275C60.6806 19.0232 67.0999 18.7357 68.9104 17.6903C70.5357 16.7519 71.1516 15.4362 70.4661 14.2488Z" fill="#1D1D1D"/>
<path fill-rule="evenodd" clip-rule="evenodd" d="M60.2932 47.6724C58.6625 45.0714 42.0096 31.8817 39.4925 31.2073C37.2212 30.5987 38.4387 32.7758 43.7851 38.8569C47.3831 42.9888 56.881 51.7199 58.0632 52.0366C59.0461 52.3 60.6516 51.2495 60.9559 50.1138C61.1018 49.5692 60.8082 48.4867 60.2883 47.664L60.2932 47.6724Z" fill="#1D1D1D"/>
<path fill-rule="evenodd" clip-rule="evenodd" d="M37.6009 63.9018C35.2095 58.2423 27.2068 45.8968 25.6726 45.4858C23.8463 44.9964 25.5859 50.5382 30.927 62.3769C33.9358 69.1059 35.1608 70.6444 37.1242 70.2237C38.9433 69.7572 39.125 67.4852 37.6009 63.9018Z" fill="#1D1D1D"/>
<path fill-rule="evenodd" clip-rule="evenodd" d="M8.86105 58.9491C9.64731 50.4891 8.06641 50.2791 4.88402 58.4102C1.64824 66.7406 0.459253 70.5935 0.792233 72.1136C1.15898 73.9062 2.6671 74.5738 4.27256 73.5233C5.30135 72.845 5.71088 71.9011 7.06696 67.2386C7.91964 64.2423 8.71833 60.4912 8.86947 58.9442L8.86105 58.9491Z" fill="#1D1D1D"/>
</svg>
