<svg width="84" height="84" viewBox="0 0 84 84" fill="none" xmlns="http://www.w3.org/2000/svg">
<path d="M84 0V84H0V0H84Z" fill="white" fill-opacity="0.01"/>
<path d="M56 10.5C65.665 10.5 73.5 18.335 73.5 28V56C73.5 65.665 65.665 73.5 56 73.5H28C18.335 73.5 10.5 65.665 10.5 56V28C10.5 18.335 18.335 10.5 28 10.5H56ZM42 28C34.268 28 28 34.268 28 42C28 49.732 34.268 56 42 56C49.732 56 56 49.732 56 42C56 34.268 49.732 28 42 28ZM42 35C45.866 35 49 38.134 49 42C49 45.866 45.866 49 42 49C38.134 49 35 45.866 35 42C35 38.134 38.134 35 42 35ZM57.75 22.75C55.817 22.75 54.25 24.317 54.25 26.25C54.25 28.183 55.817 29.75 57.75 29.75C59.683 29.75 61.25 28.183 61.25 26.25C61.25 24.317 59.683 22.75 57.75 22.75Z" fill="#10161F"/>
</svg>
