<svg width="161" height="62" viewBox="0 0 161 62" fill="none" xmlns="http://www.w3.org/2000/svg">
<path d="M52.8101 10.385C47.5222 8.11877 40.6999 10.6919 34.9398 16.3811C36.4507 18.907 37.7726 21.551 38.8585 24.2894C44.2409 37.6508 43.5799 50.7997 38.0087 57.1736C44.6658 55.4975 51.8422 48.982 56.2567 39.7754C62.3708 26.9333 60.8364 13.808 52.8101 10.385Z" fill="#2F8DFC"/>
<path d="M30.6207 56.7486C22.5944 53.3257 21.0599 40.2003 27.1977 27.3819C29.1334 23.2979 31.7538 19.5916 34.9407 16.3811C27.8351 4.57774 17.3537 -2.221 9.30378 0.659025C-0.398584 4.12922 -2.92451 20.2998 3.68538 36.8009C10.2953 53.302 23.5386 63.8779 33.241 60.4077C35.0823 59.7467 36.7348 58.6372 38.0332 57.1499C35.5781 57.8345 32.9813 57.6929 30.6443 56.725L30.6207 56.7486Z" fill="#1538D4"/>
<path d="M38.8598 24.2872C37.7739 21.5488 36.4519 18.9048 34.9411 16.3789C31.7542 19.5658 29.1338 23.2957 27.1981 27.3796C21.0603 40.1981 22.5948 53.3471 30.621 56.7464C32.9817 57.6907 35.5785 57.8559 38.0099 57.1713C43.5811 50.7975 44.2185 37.6486 38.8598 24.2872Z" fill="#E9E9EA"/>
<path d="M91.597 44.638C91.7623 44.638 91.9275 44.6616 92.0692 44.7324C92.258 44.8032 92.4233 44.8976 92.5413 45.0393L95.2325 47.8721C94.0757 49.4065 92.5413 50.6105 90.7944 51.3659C88.7878 52.1921 86.6396 52.5934 84.4678 52.5462C82.414 52.5934 80.3602 52.1921 78.4717 51.4131C76.772 50.7049 75.2376 49.619 73.9864 48.2734C72.7353 46.8806 71.7674 45.2517 71.1536 43.4812C70.4926 41.5691 70.1385 39.5625 70.1621 37.5323C70.1621 35.4785 70.4926 33.4248 71.2244 31.489C71.8854 29.7185 72.9241 28.1132 74.2225 26.7441C75.5445 25.3985 77.1025 24.3362 78.8494 23.6516C80.7379 22.8962 82.7681 22.5185 84.7983 22.5421C85.837 22.5421 86.8757 22.6365 87.9144 22.8489C88.8587 23.0378 89.7557 23.2975 90.6528 23.6516C91.479 23.9821 92.258 24.3834 92.9898 24.8791C93.6744 25.3277 94.3118 25.8706 94.902 26.4608L92.6121 29.5533C92.4469 29.7421 92.2816 29.9074 92.0928 30.0726C91.8567 30.2379 91.5498 30.3323 91.2429 30.3087C91.0069 30.3087 90.7708 30.2615 90.5583 30.1434C90.3223 30.0254 90.0862 29.8838 89.8737 29.7421C89.6377 29.6005 89.378 29.4116 89.0711 29.2464C88.7406 29.0339 88.4101 28.8687 88.0324 28.7506C87.5839 28.5854 87.1118 28.4437 86.6396 28.3493C86.0258 28.2313 85.4121 28.1841 84.7747 28.1841C83.7124 28.1841 82.6501 28.3965 81.6822 28.8214C80.7379 29.2464 79.9117 29.8601 79.2743 30.6392C78.5661 31.5126 78.0232 32.5041 77.6927 33.59C77.315 34.8884 77.1261 36.2104 77.1497 37.5559C77.1497 38.9251 77.3386 40.2707 77.7635 41.5691C78.1176 42.655 78.6842 43.6465 79.4396 44.5199C80.1242 45.299 80.9504 45.9127 81.8947 46.3377C82.8389 46.7626 83.8776 46.975 84.9163 46.975C85.4829 46.975 86.0495 46.9514 86.616 46.8806C87.1118 46.8334 87.5839 46.7154 88.056 46.5737C88.5046 46.4321 88.9059 46.2432 89.3072 46.0071C89.7321 45.7475 90.1334 45.4406 90.4875 45.1101C90.6528 44.9685 90.818 44.874 91.0069 44.7796C91.1957 44.6852 91.3846 44.638 91.597 44.638Z" fill="#1D1D1B"/>
<path d="M124.553 22.895L112.773 52.2381H106.612L94.8556 22.895H100.332C100.852 22.8714 101.347 23.013 101.772 23.2963C102.126 23.5796 102.41 23.9337 102.599 24.3586L108.288 40.0807C108.571 40.7653 108.807 41.5207 109.067 42.3233C109.327 43.1259 109.539 43.9758 109.799 44.8728C109.988 43.9758 110.2 43.1259 110.436 42.3233C110.672 41.5207 110.908 40.7653 111.191 40.0807L116.833 24.3586C116.999 23.9573 117.282 23.6032 117.636 23.3435C118.037 23.013 118.557 22.8478 119.076 22.8714H124.553V22.895Z" fill="#1D1D1B"/>
<path d="M120.328 49.0765C120.328 48.6043 120.422 48.1558 120.611 47.7309C120.776 47.3296 121.036 46.9519 121.366 46.645C122.051 45.984 122.948 45.6299 123.892 45.6299C124.364 45.6299 124.836 45.7243 125.285 45.9132C125.71 46.0784 126.088 46.3381 126.418 46.645C126.749 46.9519 126.985 47.3296 127.173 47.7309C127.362 48.1558 127.457 48.6043 127.457 49.0765C127.457 49.9971 127.103 50.8942 126.418 51.5316C126.088 51.8385 125.71 52.0745 125.285 52.2634C124.836 52.4522 124.364 52.5231 123.892 52.5231C123.42 52.5231 122.924 52.4286 122.476 52.2634C121.177 51.744 120.328 50.4693 120.328 49.0765Z" fill="#1D1D1B"/>
<path d="M137.063 22.0693V52.239H130.831V22.0693H137.063Z" fill="#1D1D1B"/>
<path d="M160.977 31.3467L152.879 52.2387H147.19L139.093 31.3467H144.286C144.688 31.3467 145.065 31.4412 145.396 31.6536C145.679 31.8425 145.892 32.1021 146.01 32.4326L148.914 41.8045C149.173 42.5599 149.385 43.3153 149.598 44.0472C149.787 44.779 149.976 45.4872 150.117 46.219C150.424 44.7317 150.826 43.2445 151.345 41.8045L154.366 32.4326C154.484 32.1258 154.697 31.8425 154.98 31.6536C155.287 31.4412 155.665 31.3231 156.043 31.3467H161H160.977Z" fill="#1D1D1B"/>
</svg>
