<svg width="59" height="45" viewBox="0 0 59 45" fill="none" xmlns="http://www.w3.org/2000/svg">
<path d="M4.49364 12.1968C3.05659 13.0214 1.22312 12.525 0.398456 11.088C-0.426205 9.65092 0.0702308 7.81745 1.50728 6.99278L3.00046 9.59479L4.49364 12.1968ZM34.341 4.16647L35.2538 1.30873L34.341 4.16647ZM50.7545 41.1192L53.3936 42.5458C52.9525 43.3618 52.1588 43.9279 51.2435 44.0791C50.3283 44.2303 49.3946 43.9496 48.7145 43.3189L50.7545 41.1192ZM39.4887 34.7623C38.2739 33.6357 38.2024 31.7375 39.3291 30.5227C40.4558 29.3079 42.3539 29.2364 43.5687 30.3631L41.5287 32.5627L39.4887 34.7623ZM53.1923 30.3005C53.9802 28.8429 55.8004 28.3001 57.258 29.0879C58.7155 29.8758 59.2584 31.6961 58.4705 33.1536L55.8314 31.727L53.1923 30.3005ZM3.00046 9.59479C1.50728 6.99278 1.50804 6.99235 1.50887 6.99187C1.50923 6.99167 1.51012 6.99115 1.51085 6.99074C1.51231 6.9899 1.51403 6.98891 1.51602 6.98778C1.52 6.98551 1.52503 6.98264 1.53111 6.97919C1.54327 6.97228 1.55963 6.96302 1.5801 6.95151C1.62103 6.9285 1.67843 6.89646 1.75167 6.85616C1.89813 6.77556 2.10808 6.66183 2.37646 6.52097C2.91298 6.2394 3.68458 5.84865 4.65079 5.39722C6.57926 4.49618 9.30366 3.34365 12.4965 2.33592C18.7828 0.351834 27.3426 -1.2184 35.2538 1.30873L34.341 4.16647L33.4281 7.02421C27.2827 5.06116 20.1722 6.20508 14.3024 8.0577C11.4172 8.96832 8.94213 10.0148 7.19061 10.8331C6.31682 11.2414 5.6283 11.5905 5.16469 11.8338C4.93302 11.9554 4.75791 12.0503 4.64432 12.1128C4.58754 12.1441 4.54617 12.1672 4.52084 12.1814C4.50818 12.1885 4.49952 12.1935 4.49496 12.196C4.49268 12.1973 4.49143 12.1981 4.4912 12.1982C4.49109 12.1982 4.49124 12.1982 4.49164 12.1979C4.49184 12.1978 4.49234 12.1975 4.49244 12.1975C4.49301 12.1971 4.49364 12.1968 3.00046 9.59479ZM34.341 4.16647L35.2538 1.30873C45.8538 4.69476 50.2812 15.4579 52.1844 24.1429C53.1654 28.6192 53.5547 32.8805 53.7014 36.0081C53.7751 37.5769 53.7882 38.873 53.7827 39.784C53.7799 40.2397 53.7725 40.5998 53.7655 40.8504C53.762 40.9756 53.7587 41.0736 53.7561 41.1425C53.7548 41.1769 53.7537 41.2041 53.7528 41.2238C53.7524 41.2336 53.7521 41.2416 53.7518 41.2477C53.7517 41.2507 53.7515 41.2533 53.7514 41.2554C53.7514 41.2564 53.7513 41.2576 53.7513 41.2582C53.7513 41.2593 53.7512 41.2602 50.7545 41.1192C47.7578 40.9783 47.7578 40.979 47.7578 40.9796C47.7578 40.9797 47.7578 40.9802 47.7578 40.9803C47.7577 40.9804 47.7578 40.9802 47.7578 40.9794C47.7579 40.9779 47.758 40.9746 47.7582 40.9694C47.7587 40.959 47.7594 40.9413 47.7603 40.9164C47.7622 40.8667 47.7649 40.7886 47.7678 40.6837C47.7737 40.4738 47.7803 40.1572 47.7828 39.7475C47.7878 38.9277 47.776 37.7385 47.708 36.2893C47.5715 33.3809 47.2105 29.4751 46.3235 25.4273C44.4908 17.064 40.7113 9.35073 33.4281 7.02421L34.341 4.16647ZM50.7545 41.1192L48.7145 43.3189L39.4887 34.7623L41.5287 32.5627L43.5687 30.3631L52.7946 38.9196L50.7545 41.1192ZM50.7545 41.1192L48.1154 39.6927L53.1923 30.3005L55.8314 31.727L58.4705 33.1536L53.3936 42.5458L50.7545 41.1192Z" fill="#1D1D1D"/>
</svg>
