<svg width="412" height="120" viewBox="0 0 412 120" fill="none" xmlns="http://www.w3.org/2000/svg">
<path d="M192.797 111.047L156.232 109.691L129.633 107.208C100.376 104.477 24.7847 96.8341 5.90643 74.8264C0.534687 68.568 -0.102256 60.4162 4.99412 54.0157C9.21855 48.7076 14.8807 44.2276 21.1362 40.9261C54.4179 23.3684 100.394 14.3462 138.237 11.198C173.351 8.28815 207.632 8.61562 242.684 9.70386C249.877 9.92831 257.01 7.13691 263.298 13.1639C261.751 14.0934 258.807 15.162 256.758 15.1072C192.25 13.4354 131.192 11.6476 69.151 29.921C58.1252 33.1622 48.1739 37.4195 37.7606 41.9037C32.1204 44.3366 27.9404 46.4099 23.8791 51.395C20.7792 55.2062 17.294 59.2153 17.1974 64.1459C16.8373 84.0392 61.9772 92.8978 78.2954 95.4345C148.754 106.368 219.828 108.58 290.747 100.706C310.556 98.502 395.442 87.5703 394.592 62.4538C394.202 50.8412 370.374 41.7547 359.952 38.6303C337.58 31.9216 315.386 28.5621 291.652 26.5462C234.207 21.6665 177.228 24.8582 120.54 33.8968C116.435 34.5509 111.79 33.7207 110.243 29.7371C185.885 16.2023 321.97 10.884 390.254 42.8849C396.399 45.7657 401.889 49.7151 406.301 54.4841C411.336 59.9234 411.355 67.5536 406.303 73.0538C400.925 78.8921 393.838 83.0752 386.164 86.1861C341.141 104.433 269.296 109.333 220.454 110.63C210.78 110.887 201.615 109.687 192.785 111.068L192.797 111.047Z" fill="#FD7E40"/>
</svg>
