<svg width="142" height="123" viewBox="0 0 142 123" fill="none" xmlns="http://www.w3.org/2000/svg">
<path fill-rule="evenodd" clip-rule="evenodd" d="M134.525 67.6358C134.542 65.2728 132.891 60.7277 130.902 57.8838C129.454 55.7286 125.978 53.6636 123.175 53.2486C116.987 52.3321 113.385 54.061 109.53 59.8634C106.704 64.067 105.883 67.5971 106.84 71.0518C107.637 73.7708 109.138 75.4918 113.89 78.8999C117.523 81.5336 117.984 81.7166 119.577 81.5793C121.68 81.3682 125.246 79.6111 126.436 78.1222C126.938 77.5191 128.033 76.7166 128.841 76.3713C129.834 75.9096 131.017 74.7011 132.38 72.8589C134.233 70.3429 134.45 69.7319 134.531 67.6366L134.525 67.6358ZM122.805 74.8572L119.812 75.9987L117.243 74.0507C113.639 71.3754 112.388 69.3585 112.788 67.1211C113.188 64.8837 115.755 60.8082 117.352 59.862C118.638 59.1279 123.529 59.2667 124.904 60.0961C126.214 60.9389 128.565 65.2948 128.841 67.3854C129.069 69.0959 128.905 69.6284 127.447 71.5255C126.083 73.3733 125.296 73.9629 122.811 74.8524L122.805 74.8572Z" fill="#1D1D1D"/>
<path fill-rule="evenodd" clip-rule="evenodd" d="M98.4637 110.564C98.6317 104.818 94.1257 99.9423 89.4933 100.841C86.7891 101.353 85.1387 102.384 83.9011 104.308C81.0019 108.81 86.0375 116.814 91.8038 116.938C95.344 117.021 98.3811 114.106 98.4581 110.563L98.4637 110.564ZM90.4069 110.754C89.9038 110.548 89.2729 109.731 89.0414 109.008C88.2368 106.575 90.795 106.196 92.4899 108.508C93.2078 109.55 91.6163 111.307 90.4069 110.754Z" fill="#1D1D1D"/>
<path fill-rule="evenodd" clip-rule="evenodd" d="M104.396 23.5046C105.4 19.5136 104.558 16.5983 101.724 14.0715C99.5604 12.2123 97.274 11.7244 93.9911 12.5014C90.5347 13.2872 89.2754 14.1571 87.2187 17.3493C84.0289 22.3028 85.3893 27.6489 90.628 31.0257C93.6559 32.9784 96.0099 33.2811 98.5551 32.0216C100.497 31.0748 103.657 26.444 104.391 23.4982L104.396 23.5046ZM96.2714 26.6709C94.546 27.0068 94.0743 26.9369 93.1263 25.9755C91.633 24.4337 91.1402 23.3042 91.3495 21.8137C91.6578 19.8095 92.6393 18.6458 94.6528 18.0311C96.6664 17.4163 98.5156 18.1438 99.0584 19.8261C99.4569 21.0105 99.4371 24.3607 99.0496 23.5282C98.6016 22.6006 98.1854 23.4346 98.5234 24.5239C98.906 25.8151 98.5606 26.1716 96.2723 26.6653L96.2714 26.6709Z" fill="#1D1D1D"/>
<path fill-rule="evenodd" clip-rule="evenodd" d="M54.2504 81.1196C54.3106 79.5897 52.796 77.8036 51.2379 77.4351C49.5433 77.098 46.7556 78.3675 45.7504 79.924C44.0361 82.5869 46.7551 85.7341 50.3591 85.2687C51.867 85.0844 52.5274 84.6941 53.2656 83.546C53.8176 82.6861 54.223 81.615 54.2569 81.1148L54.2504 81.1196Z" fill="#1D1D1D"/>
<path fill-rule="evenodd" clip-rule="evenodd" d="M62.4417 43.0524C62.9181 37.2779 57.5754 32.8981 53.2502 35.559C48.7839 38.3599 48.8907 43.7615 53.4982 47.4869C55.3707 48.9872 55.7538 49.1128 57.6228 48.8154C60.5186 48.3658 62.1652 46.3531 62.4361 43.0515L62.4417 43.0524ZM56.2437 43.0532C55.3843 42.501 54.9105 41.4376 55.2529 40.9083C55.7005 40.211 56.6306 40.7506 56.8611 41.8297C57.0657 42.773 56.7782 43.3965 56.2437 43.0532Z" fill="#1D1D1D"/>
<path fill-rule="evenodd" clip-rule="evenodd" d="M21.7669 29.8552C21.5908 28.0606 20.0064 26.7465 16.8165 25.8492C14.038 25.0416 12.7081 25.5738 11.2898 28.1371C10.473 29.5836 11.4457 32.1219 13.2477 33.2845C17.423 35.9756 22.1591 34.1047 21.7726 29.856L21.7669 29.8552Z" fill="#1D1D1D"/>
</svg>
