<svg width="156" height="151" viewBox="0 0 156 151" fill="none" xmlns="http://www.w3.org/2000/svg">
<path fill-rule="evenodd" clip-rule="evenodd" d="M55.2092 6.92173C49.5926 7.7559 47.4102 9.72164 45.6188 15.4041C44.0932 20.6698 44.2718 25.0117 46.5366 32.6603C47.3786 35.527 48.3268 40.4535 48.5946 43.4826C49.4302 51.1244 49.4202 51.1733 51.5719 52.462C53.3216 53.4834 53.8407 53.59 56.1079 53.4376C58.7271 53.2683 73.9156 47.9665 86.6667 42.8267C96.2093 38.9708 100.142 36.3263 101.386 32.8432C104.314 25.076 92.3406 20.3957 77.2626 23.402L73.5382 24.1533L73.4214 19.9197C73.2818 12.7519 69.9255 9.13345 61.8742 7.48091C59.1289 6.91744 56.5925 6.68341 55.2105 6.91562L55.2092 6.92173ZM63.0452 11.7908C66.3644 13.8922 66.9444 16.2785 65.9053 23.9177C65.1405 29.8109 65.2345 31.1102 66.2611 31.3209C66.9416 31.4606 68.1721 31.1464 68.9111 30.5912C70.8206 29.1362 81.1173 26.7598 86.6223 26.4695C90.3245 26.2359 91.5429 26.3904 92.9238 27.1005C96.5532 28.9791 95.1551 32.3349 89.2892 35.6718C84.2184 38.6495 58.3027 48.3665 56.584 48.0137C56.3302 47.9616 55.9831 46.139 55.811 43.932C55.6302 41.7678 54.6072 36.7368 53.3798 32.702C50.0055 21.3229 51.4928 12.7886 57.0034 11.1239C60.1368 10.2067 60.5635 10.2943 63.0209 11.7922L63.0452 11.7908Z" fill="#1D1D1D"/>
<path fill-rule="evenodd" clip-rule="evenodd" d="M118.507 65.9716C113.225 67.3456 109.866 69.8278 105.242 75.7823C103.283 78.3606 100.404 81.5526 98.9498 82.9546C97.4153 84.34 96.1333 85.7837 96.0593 86.1442C95.9013 86.9142 97.9474 88.6589 99.4931 88.9761C101.373 89.362 138.793 84.0378 141.61 82.9603C144.79 81.817 145.538 79.4613 143.4 77.6978C141.416 76.0614 136.71 74.6243 133.154 74.5566C129.678 74.5056 129.452 74.3191 130.888 73.0026C134.086 70.0161 131.982 66.7949 125.984 65.5638C123.331 65.0192 121.884 65.0981 118.497 65.9632L118.507 65.9716ZM126.277 69.4069C126.174 69.908 125.01 71.656 123.702 73.228C122.392 74.8061 121.467 76.2657 121.714 76.4119C121.868 76.539 122.732 76.6654 123.622 76.6633C125.951 76.6192 127.36 76.7237 132.215 77.4336C140.705 78.7049 140.033 80.2228 130.575 81.4977C118.925 83.0296 106.866 84.3883 106.65 84.1529C106.043 83.6526 115.201 72.4767 117.582 70.8893C119.873 69.2769 123.983 67.9934 125.69 68.3438C126.116 68.4314 126.379 68.9118 126.277 69.4069Z" fill="#1D1D1D"/>
<path fill-rule="evenodd" clip-rule="evenodd" d="M40.101 67.4689C36.3757 70.3917 25.4359 81.0554 21.6498 85.6215C13.6359 95.0898 3.77428 110.516 1.61417 117.116C0.377093 120.976 0.364951 121.445 1.86915 122.843C3.35303 124.281 3.52602 124.316 4.81172 123.733C5.5851 123.421 6.67534 122.033 7.30988 120.699C12.3788 108.594 23.5794 92.7364 36.9438 78.9276C46.4796 69.0138 48.2203 66.1549 44.8868 65.4707C43.6064 65.2079 42.4405 65.6755 40.101 67.4689Z" fill="#1D1D1D"/>
<path fill-rule="evenodd" clip-rule="evenodd" d="M80.1243 97.7189C73.6266 98.5123 55.9282 105.617 45.5123 111.561C32.0576 119.25 22.41 128.479 26.7701 129.374C28.7426 129.778 30.6388 128.798 38.8984 122.877C47.3397 116.948 61.3842 109.431 71.5627 105.464C81.7514 101.505 86.1911 99.4354 86.378 98.5248C86.62 97.3454 84.9749 97.1032 80.114 97.7104L80.1243 97.7189Z" fill="#1D1D1D"/>
</svg>
