<svg width="222" height="240" viewBox="0 0 222 240" fill="none" xmlns="http://www.w3.org/2000/svg">
<path fill-rule="evenodd" clip-rule="evenodd" d="M137.865 2.66393C137.393 4.06932 136.229 11.6206 135.222 19.4027C134.215 27.1847 132.967 34.0438 132.495 34.5892C131.949 35.208 129.222 36.068 126.338 36.54C123.453 37.0853 119.247 38.0187 116.919 38.6375L112.786 39.8017L113.332 42.6859C113.562 44.2486 114.265 46.0315 114.811 46.5769C115.356 47.1223 119.793 48.8318 124.701 50.4679L133.575 53.3521L134.435 57.6312C134.907 59.97 135.914 65.9586 136.69 70.867C138.327 81.6171 138.788 83.012 140.97 83.7147C144.242 84.732 145.333 82.3932 147.588 70.2482C149.843 58.1765 151.249 53.7402 152.654 53.7402C154.448 53.7402 169.709 47.4369 171.66 45.8742C173.999 44.0074 174.303 41.2805 172.363 39.571C170.957 38.4068 164.884 37.1587 155.15 36.1414C151.805 35.8268 150.084 35.2814 149.623 34.348C148.92 33.0265 148.07 28.3489 145.648 12.2289C144.871 6.70179 143.781 1.72002 143.235 1.09074C142.763 0.471957 141.526 0 140.592 0C139.187 0 138.568 0.618788 137.865 2.64296V2.66393ZM141.756 24.6991C141.756 28.5901 144.011 37.6307 145.344 39.0256C146.98 40.819 150.168 41.8259 156.787 42.4551C159.671 42.7698 162 43.2313 162 43.5459C162 43.8605 159.115 45.0981 155.612 46.3462C152.025 47.5103 148.364 49.2303 147.431 50.0799C146.34 51.0133 145.092 53.9709 144.001 58.1031C143.067 61.69 142.134 64.5637 141.976 64.4064C141.819 64.2491 141.2 61.2181 140.571 57.6312C139.008 48.7584 138.001 47.8145 127.88 45.1715C123.831 44.1542 124.145 43.2208 128.897 42.602C136.606 41.5112 138.945 38.5536 139.879 28.5901C140.193 25.3179 140.739 22.591 141.043 22.591C141.431 22.591 141.746 23.5244 141.746 24.6886L141.756 24.6991Z" fill="black"/>
<path fill-rule="evenodd" clip-rule="evenodd" d="M17.1494 8.34856C12.5553 12.4808 12.5553 20.1055 17.1494 23.3778C19.7926 25.2446 25.5613 25.4754 28.7499 23.8497C33.1132 21.5948 35.1375 15.9838 33.1866 11.4635C31.7811 7.96051 28.5191 6.25098 23.453 6.25098C20.2644 6.25098 19.0899 6.63903 17.1494 8.34856ZM24.1559 12.8584C27.8899 14.8091 26.5683 19.1616 22.5196 18.5428C20.2645 18.2282 19.1735 16.2879 19.7924 13.7918C20.3378 11.3796 21.0407 11.2223 24.1559 12.8584Z" fill="black"/>
<path fill-rule="evenodd" clip-rule="evenodd" d="M53.514 61.6901C52.8951 62.7075 50.168 74.1498 47.5144 87.2282C44.8712 100.307 42.3013 111.833 41.8293 112.924C41.0531 114.476 38.2421 115.881 26.8722 120.318C1.33195 130.281 0 130.984 0 134.256C0 138.535 5.91576 140.098 29.4422 142.038C43.1511 143.129 45.7207 143.832 47.4304 147.02C47.8185 147.796 50.3148 156.91 52.8845 167.419C56.9332 183.539 57.9507 186.727 59.8177 188.605C62.5448 191.405 63.4047 191.331 64.8837 188.217C66.7507 184.325 67.6109 179.963 69.7086 163.528C71.9637 146.548 73.3692 140.245 75.1628 138.923C76.7151 137.759 85.8298 135.263 96.3501 133.081C105.769 131.057 108.58 129.652 108.884 126.464C109.273 122.258 107.636 121.555 83.8895 115.168C76.1802 113.144 69.5618 111.036 69.2472 110.417C68.8591 109.872 68.387 108.319 68.1563 107.071C60.7617 61.6691 60.5205 60.5784 56.7131 60.1169C55.2342 59.9596 54.3006 60.3477 53.5244 61.6691L53.514 61.6901ZM59.5135 92.682C63.0168 115.577 62.8594 115.189 68.1563 117.759C69.4779 118.461 76.0964 120.485 82.9561 122.279C89.8053 124.146 95.4901 125.708 95.6474 125.782C95.7209 125.855 92.4588 126.799 88.2528 127.733C66.6039 132.714 66.3733 132.945 63.0169 157.634C61.9995 164.724 61.0658 170.408 60.9924 170.251C60.835 170.093 59.3562 164.493 57.6465 157.718C52.7377 137.707 51.6469 136.847 30.1553 135.053C22.3726 134.351 15.513 133.574 14.9676 133.26C14.3487 132.872 19.5616 130.459 28.5925 126.957C39.1862 122.824 43.9377 120.569 45.6473 118.86C48.3744 116.133 49.3078 112.787 53.9019 89.3468C55.3074 82.0262 56.6291 76.8871 56.9438 77.6632C57.1746 78.4394 58.3493 85.2146 59.5135 92.6924V92.682Z" fill="black"/>
<path fill-rule="evenodd" clip-rule="evenodd" d="M206.315 84.5849C201.49 87.6264 199.308 95.4085 202.182 99.5407C204.909 103.432 211.297 104.753 215.807 102.341C218.534 100.936 221.104 95.9539 221.177 92.0628C221.177 88.9479 219.384 85.2142 217.36 84.1235C215.105 82.9593 208.56 83.19 206.304 84.5954L206.315 84.5849ZM214.024 89.724C215.346 91.0455 215.189 94.7058 213.71 96.1112C212.073 97.8207 209.273 97.6634 207.637 95.8804C206.231 94.3282 206.619 92.6921 208.958 89.724C209.892 88.5599 212.776 88.476 214.024 89.724Z" fill="black"/>
<path fill-rule="evenodd" clip-rule="evenodd" d="M160.059 130.994C158.969 133.637 156.242 149.296 155.308 157.938C154.993 160.665 154.374 163.308 153.829 163.853C153.284 164.398 149.161 165.258 144.714 165.72C134.75 166.811 128.52 169.454 128.52 172.569C128.52 174.907 129.453 175.369 140.592 177.938C154.374 181.127 153.672 180.508 154.605 189.622C155.465 197.331 158.885 213.608 160.29 216.492C162 219.922 165.199 220.624 166.992 217.897C168.01 216.261 170.422 201.463 171.817 188.227C172.436 181.997 171.345 182.773 185.369 179.04C195.574 176.313 198.836 174.519 198.448 171.803C198.06 169.307 195.176 168.373 183.491 166.895C173.286 165.647 172.74 165.489 172.048 163.622C171.576 162.605 170.181 155.054 168.859 146.884C166.059 129.211 165.818 128.509 163.175 128.509C161.612 128.509 160.92 129.128 160.059 131.005V130.994ZM167.066 167.125C168.471 170.712 170.726 172.107 175.09 172.107C176.653 172.107 178.824 172.338 179.915 172.652C181.467 173.041 180.617 173.513 175.32 175.149C166.594 177.875 166.206 178.421 164.569 191.583C163.091 203.34 162.776 203.109 160.909 189.014C159.357 177.571 157.867 175.537 149.696 173.67C147.441 173.124 145.648 172.579 145.805 172.422C145.962 172.348 148.532 171.803 151.49 171.331C159.199 170.167 160.29 168.835 161.696 159.574C162.314 155.526 162.786 151.708 162.86 151.089C162.933 150.471 163.563 153.04 164.339 156.931C165.115 160.749 166.29 165.416 167.066 167.136V167.125Z" fill="black"/>
<path fill-rule="evenodd" clip-rule="evenodd" d="M93.9379 224.358C90.8227 228.018 91.0533 232.926 94.5566 236.429C96.8956 238.768 97.6719 239.072 101.259 239.072C104.846 239.072 105.622 238.757 107.961 236.429C110.3 234.101 110.605 233.241 110.605 230.273C110.605 227.305 110.216 226.298 108.192 224.358C106.01 222.176 105.392 221.945 100.871 221.945C96.3502 221.945 95.8049 222.103 93.9379 224.358ZM102.895 228.175C104.846 229.266 104.762 231.762 102.822 232.842C100.095 234.321 97.1369 231.825 97.997 228.71C98.385 227.231 100.567 227.001 102.906 228.165L102.895 228.175Z" fill="black"/>
</svg>
