<svg width="623" height="18" viewBox="0 0 623 18" fill="none" xmlns="http://www.w3.org/2000/svg">
<path d="M489.082 8.01033C488.008 5.81795 489.618 5.35263 493.66 5.47791C508.15 5.91639 522.656 6.1043 537.146 6.46224C555.526 6.90967 573.924 7.41078 592.304 7.9119C598.559 8.08192 604.999 7.3213 610.768 9.63001C612.378 10.2743 615.665 9.9432 618.097 9.73739C620.327 9.54947 622.642 8.762 622.96 7.55396C623.38 5.99692 620.378 5.72847 618.365 5.5137C613.737 5.02154 609.024 4.53832 604.312 4.47568C549.355 3.81349 494.482 1.96115 439.491 1.36161C356.88 0.457809 274.251 -0.445988 191.623 0.243046C138.058 0.69047 84.5101 1.83588 30.9619 2.82021C22.0903 2.98128 13.269 3.92982 4.44775 4.6278C2.6701 4.77098 0.0874023 5.03943 0.00354004 6.26538C-0.113831 7.8761 2.70361 7.88505 4.83344 8.06402C13.4032 8.7799 22.0568 8.96782 30.7103 8.7799C43.2546 8.5025 55.799 8.1893 68.3266 7.88505C78.892 7.22286 89.491 7.63449 100.073 7.67029C100.878 7.67029 101.733 7.49132 102.522 7.74188C101.432 7.96559 100.694 8.40406 100.056 8.90518C101.197 12.1535 106.228 11.375 110.085 11.536C151.911 13.2899 193.82 12.7083 235.696 12.4667C303.583 12.0729 371.336 13.9521 439.105 15.4465C463.356 15.9834 487.539 17.1109 511.755 17.9521C513.986 18.0326 516.216 17.9968 518.447 17.9521C520.174 17.9163 522.103 17.6836 522.304 16.6367C522.522 15.545 520.644 15.196 518.933 15.0528C514.539 14.6859 510.129 14.3638 505.349 13.9969C510.179 11.5092 509.81 9.92531 502.498 9.80003C500.821 9.77318 499.161 9.71054 497.484 9.6658C484.486 8.91413 471.422 9.29891 458.392 9.02151C437.546 8.58303 416.667 8.26984 395.787 8.52934C392.685 8.56514 389.7 8.30563 386.731 7.84926C362.179 7.3034 337.61 7.31235 313.058 7.52711C287.081 7.75082 261.187 6.63226 235.227 6.65911C231.302 6.65911 227.428 6.77544 223.571 7.09758C197.745 7.16022 171.901 7.09759 146.058 7.12443C150.787 7.10653 155.516 7.10653 160.246 7.10653C164.774 7.10653 169.285 7.10653 173.813 7.10653C176.932 7.10653 180.068 7.10653 183.188 7.10653C229.994 6.80229 276.801 6.32802 323.59 6.88282C347.254 7.16917 370.967 7.0081 394.563 7.70608C415.124 8.30563 435.684 8.42196 456.245 8.89623C464.764 8.77095 473.25 9.62106 481.786 9.33471C484.453 9.24522 487.438 9.67475 489.048 7.98348L489.082 8.01033Z" fill="#FFCB3B"/>
<path d="M489.082 8.01099C482.105 9.7291 474.911 8.70897 467.783 8.48526C464.194 8.36893 460.606 8.29734 457.033 8.19891C437.663 8.68213 418.31 7.90361 398.957 7.72464C394.597 7.6799 390.018 7.03561 386.446 9.06691C387.754 9.27273 389.063 9.64856 390.371 9.65751C426.075 9.69331 461.779 9.68436 497.484 9.68436C495.32 8.19891 491.044 9.73805 489.065 8.00204L489.082 8.01099Z" fill="#FFCB3B"/>
<path d="M100.057 8.90604C102.84 8.46756 105.641 8.03804 108.425 7.59956C94.9752 7.48323 81.5923 6.2215 68.3269 7.88591C76.3767 7.88591 84.4433 7.84117 92.4931 7.92171C95.0758 7.94855 98.1615 7.24162 100.057 8.90604Z" fill="#FFCB3B"/>
<path d="M222.733 7.88581C209.417 6.28404 195.849 7.68 182.45 6.94622C179.733 6.46301 176.949 6.78515 174.199 6.69567C169.688 6.50775 165.109 7.09835 160.665 6.31983C153.286 6.23035 145.823 5.83661 137.388 7.88581H222.733Z" fill="#FFCB3B"/>
<path d="M160.665 6.3291C164.875 7.86824 169.587 6.83022 174.048 7.04498C174.518 6.87496 174.669 6.72283 174.484 6.57071C174.316 6.42753 174.149 6.347 173.981 6.347C169.537 6.347 165.093 6.33805 160.665 6.3291Z" fill="#FFCB3B"/>
<path d="M173.997 6.33887C173.947 6.57153 173.981 6.80419 174.048 7.03685C176.848 7.01 179.649 6.97421 182.45 6.94736C182.383 6.75945 182.366 6.58048 182.383 6.39256C179.582 6.37466 176.781 6.35676 173.981 6.33887H173.997Z" fill="#FFCB3B"/>
</svg>
